<?xml version="1.0" encoding="UTF-8" standalone="no"?>
<!DOCTYPE svg PUBLIC "-//W3C//DTD SVG 1.1//EN" "http://www.w3.org/Graphics/SVG/1.1/DTD/svg11.dtd">
<svg width="100%" height="100%" viewBox="0 0 4167 2084" version="1.1" xmlns="http://www.w3.org/2000/svg" xmlns:xlink="http://www.w3.org/1999/xlink" xml:space="preserve" xmlns:serif="http://www.serif.com/" style="fill-rule:evenodd;clip-rule:evenodd;stroke-linejoin:round;stroke-miterlimit:2;">
    <g transform="matrix(0.5,0,0,0.5,0,0)">
        <g id="Presentation">
        </g>
        <g id="Logo-Variants" serif:id="Logo Variants" transform="matrix(8.33333,0,0,8.33333,0,0)">
            <rect x="0" y="0" width="1000" height="500" style="fill:white;"/>
            <g transform="matrix(1,0,0,1,445.561,172.481)">
                <path d="M0,120.586L-29.285,120.586L-56.848,82.588L-56.848,120.586L-82.688,120.586L-82.688,0L-56.848,0L-56.848,72.179L-31.008,34.453L-0.861,34.453L-32.214,77.52L0,120.586Z" style="fill:rgb(28,28,41);fill-rule:nonzero;"/>
            </g>
            <g transform="matrix(1,0,0,1,477.084,235.358)">
                <path d="M0,29.284C3.79,33.074 8.497,34.969 14.126,34.969C19.751,34.969 24.462,33.074 28.251,29.284C32.041,25.495 33.936,20.614 33.936,14.642C33.936,8.672 32.041,3.789 28.251,-0.001C24.462,-3.791 19.751,-5.686 14.126,-5.686C8.497,-5.686 3.79,-3.791 0,-0.001C-3.79,3.789 -5.685,8.672 -5.685,14.642C-5.685,20.614 -3.79,25.495 0,29.284M46.511,46.942C37.667,55.727 26.873,60.12 14.126,60.12C1.378,60.12 -9.418,55.727 -18.26,46.942C-27.105,38.156 -31.525,27.39 -31.525,14.642C-31.525,1.894 -27.105,-8.873 -18.26,-17.658C-9.418,-26.444 1.378,-30.836 14.126,-30.836C26.873,-30.836 37.667,-26.444 46.511,-17.658C55.354,-8.873 59.776,1.894 59.776,14.642C59.776,27.39 55.354,38.156 46.511,46.942" style="fill:rgb(28,28,41);fill-rule:nonzero;"/>
            </g>
            <g transform="matrix(1,0,0,1,583.113,266.71)">
                <path d="M0,-1.378C3.846,2.412 8.756,4.307 14.729,4.307C20.699,4.307 25.609,2.412 29.458,-1.378C33.304,-5.168 35.228,-10.276 35.228,-16.71C35.228,-23.14 33.304,-28.252 29.458,-32.041C25.609,-35.831 20.699,-37.726 14.729,-37.726C8.756,-37.726 3.846,-35.831 0,-32.041C-3.849,-28.252 -5.771,-23.14 -5.771,-16.71C-5.771,-10.276 -3.849,-5.168 0,-1.378M19.897,-62.188C31.266,-62.188 40.97,-57.795 49.009,-49.009C57.047,-40.224 61.068,-29.458 61.068,-16.71C61.068,-3.961 57.047,6.805 49.009,15.59C40.97,24.375 31.266,28.768 19.897,28.768C8.872,28.768 0.315,25.267 -5.771,18.26L-5.771,60.81L-31.611,60.81L-31.611,-59.776L-5.771,-59.776L-5.771,-51.679C0.315,-58.683 8.872,-62.188 19.897,-62.188" style="fill:rgb(28,28,41);fill-rule:nonzero;"/>
            </g>
            <g transform="matrix(1,0,0,1,690.432,266.71)">
                <path d="M0,-1.378C3.846,2.412 8.756,4.307 14.729,4.307C20.699,4.307 25.609,2.412 29.458,-1.378C33.304,-5.168 35.228,-10.276 35.228,-16.71C35.228,-23.14 33.304,-28.252 29.458,-32.041C25.609,-35.831 20.699,-37.726 14.729,-37.726C8.756,-37.726 3.846,-35.831 0,-32.041C-3.849,-28.252 -5.771,-23.14 -5.771,-16.71C-5.771,-10.276 -3.849,-5.168 0,-1.378M19.897,-62.188C31.266,-62.188 40.97,-57.795 49.009,-49.009C57.047,-40.224 61.068,-29.458 61.068,-16.71C61.068,-3.961 57.047,6.805 49.009,15.59C40.97,24.375 31.266,28.768 19.897,28.768C8.872,28.768 0.315,25.267 -5.771,18.26L-5.771,60.81L-31.611,60.81L-31.611,-59.776L-5.771,-59.776L-5.771,-51.679C0.315,-58.683 8.872,-62.188 19.897,-62.188" style="fill:rgb(28,28,41);fill-rule:nonzero;"/>
            </g>
            <g transform="matrix(1,0,0,1,0,-34.454)">
                <rect x="766.141" y="206.934" width="25.84" height="120.586" style="fill:rgb(28,28,41);"/>
            </g>
            <g transform="matrix(1,0,0,1,0,-34.454)">
                <path d="M810.929,245.522L836.769,245.522L836.769,327.52L810.929,327.52L810.929,245.522ZM834.788,233.377C831.744,236.422 828.096,237.943 823.849,237.943C819.599,237.943 815.952,236.422 812.91,233.377C809.866,230.336 808.345,226.689 808.345,222.439C808.345,218.191 809.866,214.544 812.91,211.499C815.952,208.458 819.599,206.934 823.849,206.934C828.096,206.934 831.744,208.458 834.788,211.499C837.83,214.544 839.353,218.191 839.353,222.439C839.353,226.689 837.83,230.336 834.788,233.377" style="fill:rgb(28,28,41);fill-rule:nonzero;"/>
            </g>
            <g transform="matrix(1,0,0,1,238.424,207.731)">
                <path d="M0,50.854C-2.19,59.743 3.989,68.481 13.144,69.344C20.446,70.032 27.276,65.161 29.018,58.036C29.419,56.399 29.535,54.767 29.402,53.189C29.046,48.985 30.535,44.834 33.388,41.725L34.685,40.311C38.476,36.181 44.236,34.393 49.661,35.811C50.631,36.064 51.626,36.267 52.643,36.416C66.57,38.451 79.945,29.299 83.068,15.575C86.647,-0.15 75.913,-15.481 59.896,-17.486C46.372,-19.178 33.497,-10.373 30.189,2.849C28.839,8.245 29.187,13.613 30.868,18.433C32.739,23.798 31.578,29.751 27.736,33.938L27.139,34.588C24.083,37.919 19.711,39.745 15.196,39.526C15.041,39.519 14.884,39.514 14.727,39.511C7.829,39.385 1.65,44.155 0,50.854" style="fill:rgb(28,28,41);fill-rule:nonzero;"/>
            </g>
            <g transform="matrix(1,0,0,1,324.056,172.694)">
                <path d="M0,149.059C-1.089,127.891 -18.074,110.573 -39.219,109.106C-47.85,108.508 -55.975,110.502 -62.896,114.386C-70.602,118.711 -80.034,118.554 -87.489,113.811L-88.648,113.073C-94.579,109.3 -98.566,103.103 -99.459,96.131C-99.49,95.89 -99.525,95.649 -99.563,95.408C-100.176,91.555 -101.757,88.027 -104.032,85.059C-104.865,83.951 -105.778,82.934 -106.764,82.016C-111.568,77.546 -114.191,71.209 -114.155,64.648L-114.138,61.664C-114.089,52.944 -109.323,44.865 -101.594,40.83C-100.212,40.108 -98.854,39.302 -97.527,38.41C-79.36,26.199 -73.522,1.681 -84.268,-17.389C-96.581,-39.239 -124.965,-45.677 -145.505,-31.247C-162.849,-19.062 -168.476,4.534 -158.467,23.218C-154.382,30.843 -148.371,36.662 -141.399,40.456C-133.637,44.68 -128.752,52.749 -128.802,61.585L-128.809,62.959C-128.849,69.989 -131.974,76.661 -137.403,81.127C-137.59,81.281 -137.775,81.439 -137.96,81.6C-146.035,88.663 -148.166,100.615 -143.066,110.054C-141.239,113.434 -138.722,116.163 -135.797,118.179C-132.409,120.555 -128.375,122.054 -124.039,122.332C-121.424,122.499 -118.893,122.234 -116.513,121.6C-110.173,119.911 -103.411,121.061 -97.875,124.583L-95.357,126.185C-88.001,130.866 -83.696,139.199 -84.391,147.891C-84.515,149.445 -84.555,151.024 -84.506,152.621C-83.833,174.501 -66.18,192.488 -44.315,193.536C-19.263,194.736 1.29,174.129 0,149.059" style="fill:rgb(28,28,41);fill-rule:nonzero;"/>
            </g>
            <g transform="matrix(-1,0,0,1,212.755,334.093)">
                <path d="M0,-26.91C7.431,-26.91 13.455,-20.886 13.455,-13.455C13.455,-6.024 7.431,0 0,0C-7.431,0 -13.455,-6.024 -13.455,-13.455C-13.455,-20.886 -7.431,-26.91 0,-26.91" style="fill:rgb(28,28,41);fill-rule:nonzero;"/>
            </g>
        </g>
    </g>
</svg>
